<svg id="Layer_1" data-name="Layer 1" xmlns="http://www.w3.org/2000/svg" viewBox="0 0 979.56 621.18"><defs><style>.cls-1{fill:#31cb9e;}.cls-2{fill:#27282d;}</style></defs><path class="cls-1" d="M287.38,213.66a16.88,16.88,0,0,0-25.83-19.25l-.05,0-.05,0A16.88,16.88,0,0,0,271.67,225a12.6,12.6,0,0,1,12.12,16.73A16.88,16.88,0,0,0,309.63,261l0,0,0,0a16.88,16.88,0,0,0-10.2-30.56,12.6,12.6,0,0,1-12.11-16.73Z"/><path class="cls-1" d="M240.25,262.45a16.89,16.89,0,0,0-32.22-.39.14.14,0,0,1,0,.06.08.08,0,0,1,0,.05,16.89,16.89,0,0,0,26.23,18.72,12.61,12.61,0,0,1,19.64,6.41,16.88,16.88,0,0,0,32.21.37s0,0,0,0l0,0a16.89,16.89,0,0,0-26.22-18.73,12.59,12.59,0,0,1-19.63-6.42Z"/><path class="cls-1" d="M230.79,329.63a16.88,16.88,0,0,0-26.29,18.62.14.14,0,0,1,0,.06l0,.05a16.88,16.88,0,0,0,32.21-.27,12.61,12.61,0,0,1,19.66-6.36,16.89,16.89,0,0,0,26.28-18.64v0a.06.06,0,0,1,0,0,16.89,16.89,0,0,0-32.22.26,12.6,12.6,0,0,1-19.66,6.35Z"/><path class="cls-1" d="M262.63,389.53a16.88,16.88,0,0,0-10.32,30.52l.05,0,0,0A16.88,16.88,0,0,0,278.3,401a12.6,12.6,0,0,1,12.17-16.69,16.89,16.89,0,0,0,10.31-30.53l0,0,0,0a16.88,16.88,0,0,0-25.91,19.14,12.6,12.6,0,0,1-12.18,16.69Z"/><path class="cls-1" d="M323.6,419.29A16.88,16.88,0,0,0,333.19,450h.11a16.88,16.88,0,0,0,9.7-30.72,12.6,12.6,0,0,1,0-20.66,16.88,16.88,0,0,0-9.61-30.75h-.07a16.88,16.88,0,0,0-9.71,30.72,12.61,12.61,0,0,1,0,20.66Z"/><path class="cls-1" d="M390.41,407.52a16.89,16.89,0,0,0,25.84,19.25.1.1,0,0,1,.05,0l0,0a16.89,16.89,0,0,0-10.22-30.56A12.6,12.6,0,0,1,394,379.41a16.89,16.89,0,0,0-25.85-19.23l0,0,0,0a16.88,16.88,0,0,0,10.2,30.56,12.6,12.6,0,0,1,12.11,16.74Z"/><path class="cls-1" d="M415.16,231.64a16.88,16.88,0,0,0,10.33-30.52l-.05,0-.05,0a16.88,16.88,0,0,0-25.9,19.16,12.6,12.6,0,0,1-12.17,16.7A16.88,16.88,0,0,0,377,267.43l0,0,0,0A16.88,16.88,0,0,0,403,248.33a12.6,12.6,0,0,1,12.17-16.69Z"/><path class="cls-1" d="M354.19,201.89a16.88,16.88,0,0,0-9.58-30.76h-.12a16.88,16.88,0,0,0-9.69,30.73,12.6,12.6,0,0,1,0,20.66,16.88,16.88,0,0,0,9.6,30.75h.08a16.88,16.88,0,0,0,9.7-30.72,12.61,12.61,0,0,1,0-20.66Z"/><path class="cls-1" d="M371.55,225.37l0,0,0,0a11.08,11.08,0,1,0,13-17.92l0,0,0,0a11.08,11.08,0,1,0-13,17.93Z"/><path class="cls-1" d="M419.35,261.27l0,0,0,0a11.08,11.08,0,1,0,13-17.92l0,0,0,0a11.07,11.07,0,1,0-13,17.92Z"/><path class="cls-1" d="M310,225.37l0,0,0,0a11.08,11.08,0,1,0,13-17.92l0,0,0,0a11.08,11.08,0,1,0-13,17.93Z"/><path class="cls-1" d="M252.77,257.17l0,0,0,0a11.08,11.08,0,1,0,13-17.92l0,0,0,0a11.08,11.08,0,0,0-13,17.93Z"/><path class="cls-1" d="M230.82,315.64l0,0,0,0a11.08,11.08,0,1,0,13-17.92l0,0,0,0a11.08,11.08,0,1,0-13,17.93Z"/><path class="cls-1" d="M248.87,374.72l0,0,0,0a11.08,11.08,0,1,0,13-17.92l0,0,0,0a11.08,11.08,0,0,0-13,17.93Z"/><path class="cls-1" d="M409.72,385.59l0,0,0,0a11.08,11.08,0,1,0,13-17.92l0,0,0,0a11.08,11.08,0,1,0-13,17.93Z"/><path class="cls-2" d="M479.92,291.35h7.31c0,6.38,5.15,10.77,12.38,10.77,6.77,0,11.69-3.54,11.69-8.69,0-13.85-30.61-5.23-30.61-24.92,0-8.61,7.61-14.77,17.92-14.77,11.92,0,18.38,7.39,18.38,16.23h-7.61c-.16-5.31-4.54-9.23-11-9.23-6.15,0-10.46,3.15-10.46,7.77,0,12.69,30.76,3.92,30.76,24.92,0,8.46-7.54,15.68-19.07,15.68S479.92,301.65,479.92,291.35Z"/><path class="cls-2" d="M562.05,291.5H531.91c.84,6.77,5.46,11.23,12.46,11.23,5.23,0,9.46-2.54,10.38-6.54h7.07c-1.38,7.85-8.61,12.92-17.68,12.92-10.92,0-19.23-8.53-19.23-19.68a19.05,19.05,0,0,1,19.15-19.38c10.07,0,18.15,7.76,18.15,18.61C562.21,289.35,562.13,290.89,562.05,291.5Zm-7.53-6c-.62-5.23-4.85-9-10.77-9s-10.3,3.38-11.61,9Z"/><path class="cls-2" d="M567.21,289.66a19.21,19.21,0,0,1,19.38-19.61c8.77,0,16.38,5.84,17.61,13.69H597c-1.08-4-5.46-6.93-10.38-6.93-7.08,0-12.46,5.54-12.46,12.85a12.36,12.36,0,0,0,12.46,12.69c4.92,0,9.46-2.93,10.46-7.23h7.15c-1.08,8.23-8.77,14-17.61,14A19.13,19.13,0,0,1,567.21,289.66Z"/><path class="cls-2" d="M646.81,270.82v37.53h-7.08v-5.46c-2.31,3.76-7.15,6.22-12.3,6.22-9.31,0-15.39-6.61-15.39-16.76V270.82h7.16v20.45c0,6.62,3.92,10.85,9.84,10.85a12.35,12.35,0,0,0,10.69-6v-25.3Z"/><path class="cls-2" d="M677.65,270.66v6.69a14.57,14.57,0,0,0-4.39-.69c-3.07,0-7.15,2.46-9.38,6.69v25h-7.15V270.82h7.15v5.46c2.08-3.77,6.23-6.23,9.84-6.23A12.16,12.16,0,0,1,677.65,270.66Z"/><path class="cls-2" d="M716.64,291.5H686.49c.85,6.77,5.46,11.23,12.46,11.23,5.23,0,9.46-2.54,10.38-6.54h7.08c-1.39,7.85-8.62,12.92-17.69,12.92-10.92,0-19.23-8.53-19.23-19.68a19.05,19.05,0,0,1,19.15-19.38c10.08,0,18.15,7.76,18.15,18.61C716.79,289.35,716.71,290.89,716.64,291.5Zm-7.54-6c-.62-5.23-4.85-9-10.77-9s-10.3,3.38-11.61,9Z"/><path class="cls-2" d="M759.78,254.51v53.84h-7.15v-5.46c-2.08,3.53-7.31,6.22-12.54,6.22-10.38,0-18.3-8.53-18.3-19.53s7.92-19.53,18.3-19.53c5.31,0,10.54,2.69,12.54,6.23V254.51Zm-7.15,41.68V283a13,13,0,0,0-11.15-6.3,12.84,12.84,0,0,0,0,25.68A13.09,13.09,0,0,0,752.63,296.19Z"/><path class="cls-2" d="M479.69,355.3c0-15.53,11.69-27.53,26.92-27.53,12.07,0,22.68,7.77,24.61,18.61H523c-1.85-6.77-8.54-11.46-16.38-11.46-10.92,0-19.31,8.92-19.31,20.38,0,11.69,8.39,20.69,19.31,20.69,8,0,14.69-5,16.45-12.15h8.31c-2.23,11.46-12.38,19.3-24.76,19.3C491.38,383.14,479.69,371.07,479.69,355.3Z"/><path class="cls-2" d="M574.9,344.84v37.53h-7.15v-5.46c-2.08,3.54-7.31,6.23-12.54,6.23-10.38,0-18.3-8.53-18.3-19.53s7.92-19.53,18.3-19.53c5.31,0,10.54,2.69,12.54,6.22v-5.46Zm-7.15,25.38V357.07a13,13,0,0,0-11.15-6.3,12.84,12.84,0,0,0,0,25.68A13.09,13.09,0,0,0,567.75,370.22Z"/><path class="cls-2" d="M605.66,344.69v6.69a14.51,14.51,0,0,0-4.38-.69c-3.08,0-7.15,2.46-9.38,6.69v25h-7.16V344.84h7.16v5.46a12,12,0,0,1,9.84-6.22A11.82,11.82,0,0,1,605.66,344.69Z"/><path class="cls-2" d="M650.5,363.61c0,11-7.92,19.53-18.31,19.53-5.23,0-10.46-2.69-12.53-6.23v5.46h-7.15V328.54h7.15V350.3c2-3.53,7.3-6.22,12.53-6.22C642.58,344.08,650.5,352.61,650.5,363.61Zm-6.92,0a12.52,12.52,0,0,0-12.77-12.84,13,13,0,0,0-11.15,6.3v13.15a13.07,13.07,0,0,0,11.15,6.23A12.57,12.57,0,0,0,643.58,363.61Z"/><path class="cls-2" d="M655.5,363.69a19.38,19.38,0,1,1,19.38,19.45A19.21,19.21,0,0,1,655.5,363.69Zm31.84,0c0-7.31-5.46-12.85-12.46-12.85s-12.46,5.54-12.46,12.85a12.46,12.46,0,1,0,24.92,0Z"/><path class="cls-2" d="M736.86,360.92v21.45h-7.07V361.92c0-6.62-3.92-10.85-9.92-10.85a12.32,12.32,0,0,0-10.62,6v25.3H702.1V344.84h7.15v5.46c2.31-3.76,7.16-6.22,12.23-6.22C730.86,344.08,736.86,350.69,736.86,360.92Z"/></svg>