<svg id="Layer_1" data-name="Layer 1" xmlns="http://www.w3.org/2000/svg" viewBox="0 0 979.56 621.18"><defs><style>.cls-1{fill:#27282d;}.cls-2{fill:#31cb9e;}</style></defs><path class="cls-1" d="M201.57,495.38h7.09c0,6.2,5,10.45,12,10.45,6.57,0,11.35-3.43,11.35-8.43,0-13.43-29.7-5.08-29.7-24.18,0-8.36,7.39-14.32,17.38-14.32,11.57,0,17.84,7.16,17.84,15.74h-7.39c-.15-5.15-4.4-8.95-10.67-8.95-6,0-10.15,3.05-10.15,7.53,0,12.31,29.85,3.81,29.85,24.18,0,8.2-7.31,15.22-18.51,15.22S201.57,505.38,201.57,495.38Z"/><path class="cls-1" d="M281.26,495.53H252c.83,6.57,5.3,10.9,12.09,10.9,5.08,0,9.18-2.47,10.08-6.35H281c-1.34,7.61-8.36,12.54-17.16,12.54-10.6,0-18.66-8.28-18.66-19.1a18.5,18.5,0,0,1,18.58-18.81c9.78,0,17.61,7.54,17.61,18.06C281.41,493.44,281.34,494.93,281.26,495.53ZM274,489.71c-.6-5.07-4.7-8.73-10.44-8.73s-10,3.28-11.27,8.73Z"/><path class="cls-1" d="M286.27,493.74a18.64,18.64,0,0,1,18.8-19c8.5,0,15.89,5.67,17.09,13.29h-7c-1-3.88-5.3-6.72-10.07-6.72-6.87,0-12.09,5.37-12.09,12.46a12,12,0,0,0,12.09,12.31c4.77,0,9.18-2.83,10.15-7h6.94c-1.05,8-8.51,13.58-17.09,13.58A18.55,18.55,0,0,1,286.27,493.74Z"/><path class="cls-1" d="M363.49,475.46v36.41h-6.86v-5.3c-2.24,3.66-6.94,6.05-11.94,6.05-9,0-14.92-6.42-14.92-16.27V475.46h6.94v19.85c0,6.41,3.8,10.52,9.55,10.52A12,12,0,0,0,356.63,500V475.46Z"/><path class="cls-1" d="M393.42,475.31v6.49a14,14,0,0,0-4.26-.67c-3,0-6.94,2.39-9.1,6.49v24.25h-6.94V475.46h6.94v5.3a11.66,11.66,0,0,1,9.55-6.05A11.52,11.52,0,0,1,393.42,475.31Z"/><path class="cls-1" d="M431.25,495.53H402c.82,6.57,5.3,10.9,12.09,10.9,5.07,0,9.17-2.47,10.07-6.35H431c-1.35,7.61-8.36,12.54-17.17,12.54-10.59,0-18.65-8.28-18.65-19.1a18.49,18.49,0,0,1,18.58-18.81c9.77,0,17.61,7.54,17.61,18.06C431.4,493.44,431.32,494.93,431.25,495.53Zm-7.31-5.82c-.6-5.07-4.7-8.73-10.45-8.73s-10,3.28-11.27,8.73Z"/><path class="cls-1" d="M473.11,459.64v52.23h-6.94v-5.3c-2,3.44-7.09,6.05-12.16,6.05-10.07,0-17.76-8.28-17.76-18.95s7.69-19,17.76-19c5.15,0,10.22,2.62,12.16,6.05V459.64Zm-6.94,40.44V487.32a12.6,12.6,0,0,0-10.82-6.11,12.46,12.46,0,0,0,0,24.92A12.7,12.7,0,0,0,466.17,500.08Z"/><path class="cls-1" d="M498.41,485.61c0-15.07,11.34-26.71,26.11-26.71,11.72,0,22,7.53,23.88,18.05h-8c-1.79-6.56-8.28-11.12-15.9-11.12-10.59,0-18.72,8.66-18.72,19.78,0,11.34,8.13,20.07,18.72,20.07,7.76,0,14.26-4.85,16-11.79h8.06c-2.16,11.12-12,18.73-24,18.73C509.75,512.62,498.41,500.9,498.41,485.61Z"/><path class="cls-1" d="M590.78,475.46v36.41h-6.93v-5.3c-2,3.44-7.09,6.05-12.17,6.05-10.07,0-17.75-8.28-17.75-18.95s7.68-19,17.75-19c5.15,0,10.23,2.62,12.17,6.05v-5.3Zm-6.93,24.62V487.32A12.61,12.61,0,0,0,573,481.21a12.46,12.46,0,0,0,0,24.92A12.71,12.71,0,0,0,583.85,500.08Z"/><path class="cls-1" d="M620.63,475.31v6.49a14,14,0,0,0-4.25-.67c-3,0-6.94,2.39-9.1,6.49v24.25h-6.94V475.46h6.94v5.3a11.65,11.65,0,0,1,9.55-6.05A11.45,11.45,0,0,1,620.63,475.31Z"/><path class="cls-1" d="M664.14,493.67c0,10.67-7.69,18.95-17.76,18.95-5.08,0-10.15-2.61-12.16-6.05v5.3h-6.94V459.64h6.94v21.12c1.94-3.43,7.08-6.05,12.16-6.05C656.45,474.71,664.14,483,664.14,493.67Zm-6.72,0A12.14,12.14,0,0,0,645,481.21a12.59,12.59,0,0,0-10.81,6.11v12.76A12.7,12.7,0,0,0,645,506.13,12.19,12.19,0,0,0,657.42,493.67Z"/><path class="cls-1" d="M669,493.74a18.8,18.8,0,1,1,18.8,18.88A18.64,18.64,0,0,1,669,493.74Zm30.89,0a12.08,12.08,0,0,0-12.09-12.46c-6.86,0-12.09,5.37-12.09,12.46a12.09,12.09,0,1,0,24.18,0Z"/><path class="cls-1" d="M747.93,491.05v20.82h-6.86V492c0-6.41-3.81-10.52-9.63-10.52a11.92,11.92,0,0,0-10.29,5.82v24.55h-6.94V475.46h6.94v5.3c2.24-3.66,6.94-6.05,11.86-6.05C742.11,474.71,747.93,481.13,747.93,491.05Z"/><path class="cls-2" d="M442.77,176.37a16.38,16.38,0,0,0-25.06-18.68l0,0-.05,0a16.38,16.38,0,0,0,9.92,29.64,12.23,12.23,0,0,1,11.76,16.23,16.38,16.38,0,0,0,25.07,18.67l0,0,0,0a16.38,16.38,0,0,0-9.9-29.65,12.24,12.24,0,0,1-11.75-16.24Z"/><path class="cls-2" d="M397,223.71a16.38,16.38,0,0,0-31.26-.38s0,0,0,.06,0,0,0,.05a16.38,16.38,0,0,0,25.45,18.16,12.23,12.23,0,0,1,19.06,6.22,16.38,16.38,0,0,0,31.25.36.06.06,0,0,0,0,0l0,0a16.39,16.39,0,0,0-25.44-18.17,12.22,12.22,0,0,1-19-6.23Z"/><path class="cls-2" d="M387.86,288.89A16.38,16.38,0,0,0,362.36,307s0,0,0,.05a.14.14,0,0,1,0,.06,16.39,16.39,0,0,0,31.26-.27,12.22,12.22,0,0,1,19.07-6.17,16.38,16.38,0,0,0,25.5-18.08s0,0,0,0a0,0,0,0,1,0,0,16.38,16.38,0,0,0-31.26.25,12.23,12.23,0,0,1-19.08,6.16Z"/><path class="cls-2" d="M418.76,347a16.38,16.38,0,0,0-10,29.61l.05,0,0,0A16.38,16.38,0,0,0,434,358.1a12.24,12.24,0,0,1,11.81-16.2,16.38,16.38,0,0,0,10-29.61l0,0,0,0a16.38,16.38,0,0,0-25.14,18.58A12.23,12.23,0,0,1,418.76,347Z"/><path class="cls-2" d="M477.91,375.88a16.38,16.38,0,0,0,9.3,29.84h.12a16.38,16.38,0,0,0,9.4-29.81,12.23,12.23,0,0,1,0-20A16.38,16.38,0,0,0,487.44,326h-.07a16.38,16.38,0,0,0-9.42,29.8,12.24,12.24,0,0,1,0,20.05Z"/><path class="cls-2" d="M542.74,364.46a16.38,16.38,0,0,0,25.07,18.68l0,0,0,0A16.38,16.38,0,0,0,558,353.43a12.23,12.23,0,0,1-11.75-16.24,16.39,16.39,0,0,0-25.08-18.66l0,0,0,0a16.38,16.38,0,0,0,9.9,29.65,12.24,12.24,0,0,1,11.75,16.24Z"/><path class="cls-2" d="M566.76,193.81a16.38,16.38,0,0,0,10-29.61l0,0,0,0a16.38,16.38,0,0,0-25.13,18.6,12.23,12.23,0,0,1-11.81,16.2,16.38,16.38,0,0,0-10,29.61l0,0,0,0A16.38,16.38,0,0,0,554.94,210a12.23,12.23,0,0,1,11.82-16.2Z"/><path class="cls-2" d="M507.6,165a16.38,16.38,0,0,0-9.3-29.85s0,0-.06,0,0,0-.06,0a16.39,16.39,0,0,0-9.4,29.82,12.22,12.22,0,0,1,0,20,16.38,16.38,0,0,0,9.32,29.84h.07A16.39,16.39,0,0,0,507.56,185a12.23,12.23,0,0,1,0-20Z"/><path class="cls-2" d="M524.44,187.73l0,0,0,0a10.75,10.75,0,0,0,12.64-17.39l0,0,0,0a10.74,10.74,0,1,0-12.62,17.39Z"/><path class="cls-2" d="M570.82,222.57l0,0,0,0a10.75,10.75,0,0,0,12.63-17.39l0,0,0,0a10.75,10.75,0,0,0-12.62,17.4Z"/><path class="cls-2" d="M464.73,187.73l0,0,0,0a10.75,10.75,0,0,0,12.63-17.39l0,0,0,0a10.74,10.74,0,1,0-12.62,17.39Z"/><path class="cls-2" d="M409.19,218.58l0,0,0,0a10.75,10.75,0,0,0,12.63-17.39l0,0,0,0a10.74,10.74,0,0,0-12.62,17.39Z"/><path class="cls-2" d="M387.89,275.31l0,0,0,0A10.75,10.75,0,0,0,400.59,258l0,0,0,0a10.75,10.75,0,1,0-12.63,17.39Z"/><path class="cls-2" d="M405.41,332.64l0,0,0,0a10.75,10.75,0,0,0,12.64-17.38l0,0,0,0a10.75,10.75,0,1,0-12.62,17.4Z"/><path class="cls-2" d="M453.18,371.65l0,0,0,0a10.75,10.75,0,0,0,12.63-17.39l0,0,0,0a10.74,10.74,0,0,0-12.62,17.39Z"/><path class="cls-2" d="M512.5,372.85l0,0,0,0a10.74,10.74,0,1,0,12.63-17.38l0,0,0,0a10.75,10.75,0,1,0-12.62,17.4Z"/><path class="cls-2" d="M561.47,343.19l0,0,0,0a10.75,10.75,0,0,0,12.64-17.38l0,0,0,0a10.75,10.75,0,1,0-12.62,17.4Z"/></svg>